<svg xmlns="http://www.w3.org/2000/svg" width="781" height="440" viewBox="0 0 781 440"><title>reverse-proxy</title><rect x="333.83" y="194.37" width="25.49" height="25.49" fill="#139c80"/><rect x="366.52" y="194.37" width="25.49" height="25.49" fill="#139c80"/><rect x="399.2" y="194.37" width="25.49" height="25.49" fill="#139c80"/><rect x="431.89" y="194.37" width="25.49" height="25.49" fill="#125f82"/><rect x="464.58" y="194.37" width="25.49" height="25.49" fill="#125f82"/><rect x="497.26" y="194.37" width="25.49" height="25.49" fill="#125f82"/><line x1="316.1" y1="220.31" x2="555.69" y2="220.31" fill="none" stroke="#999" stroke-miterlimit="10" stroke-width="2"/><text transform="translate(173.87 99.03)" font-size="30" fill="#4c5054" font-family="Verdana" style="isolation:isolate">Fron<tspan x="67.24" y="0" letter-spacing="-0.02em">t</tspan><tspan x="78.47" y="0">-end</tspan></text><text transform="translate(587.74 99.03)" font-size="30" fill="#4c5054" font-family="Verdana" style="isolation:isolate">Bac<tspan x="54.21" y="0" letter-spacing="-0.05em">k</tspan><tspan x="70.5" y="0">-end</tspan></text><path d="M246.48,168.38a51.93,51.93,0,1,0-.07,103.86h0a51.93,51.93,0,0,0,0-103.86Zm37.39,19.69a26.75,26.75,0,0,1-7.15,6.92,37.39,37.39,0,0,1-6.53,3.53,69.41,69.41,0,0,0-8.08-16.33,67.43,67.43,0,0,0-8.83-10.76,49.11,49.11,0,0,1,28,14A31.43,31.43,0,0,1,283.87,188.07Zm-34.79,81.55-1.39.06V237.87a63.62,63.62,0,0,1,20.1,3.35A67.37,67.37,0,0,1,260.06,257,61.1,61.1,0,0,1,249.08,269.62Zm-24-28.42a61.63,61.63,0,0,1,20.1-3.33v31.81l-1.38-.06A66.54,66.54,0,0,1,225.06,241.2ZM243.8,171h1.4V202.8a63.68,63.68,0,0,1-20.11-3.35,67.44,67.44,0,0,1,7.73-15.76A61.93,61.93,0,0,1,243.8,171Zm24,28.38a63.66,63.66,0,0,1-20.11,3.33V170.93h1.4A66.77,66.77,0,0,1,267.83,199.37Zm-20.11,5.87a64.74,64.74,0,0,0,20.88-3.4A65.21,65.21,0,0,1,271.21,219h-23.5Zm-2.54,0V219H221.69a65.64,65.64,0,0,1,2.63-17.16,65,65,0,0,0,20.86,3.47Zm-26,13.74H197.07a49,49,0,0,1,10.3-28.93c1.85,2.58,6.17,7.34,14.56,10.86A67.88,67.88,0,0,0,219.14,219Zm0,2.54a68.09,68.09,0,0,0,2.78,18.1c-8.39,3.46-12.7,8.27-14.56,10.83a48.87,48.87,0,0,1-10.28-28.94Zm2.55,0h23.49v13.75a64.7,64.7,0,0,0-20.87,3.46,64.81,64.81,0,0,1-2.63-17.16Zm26,13.76v-13.7h23.5a66.07,66.07,0,0,1-2.63,17.17,64.77,64.77,0,0,0-20.88-3.43Zm26-13.73h22.08a48.86,48.86,0,0,1-10.3,28.93c-1.85-2.58-6.16-7.34-14.55-10.86a68,68,0,0,0,2.76-18Zm0-2.54a68.08,68.08,0,0,0-2.77-18.1c8.39-3.46,12.69-8.27,14.56-10.83A48.92,48.92,0,0,1,295.82,219Zm-62.22-33.69a49,49,0,0,1,28.06-14,67.51,67.51,0,0,0-8.84,10.75,69.54,69.54,0,0,0-8.08,16.32,39.12,39.12,0,0,1-6.52-3.54A26.6,26.6,0,0,1,209,188c.83-.84,1.66-1.73,2.51-2.58ZM209,252.5c1.33-2,5.26-6.82,13.67-10.39a69.54,69.54,0,0,0,8.08,16.32,68.07,68.07,0,0,0,8.83,10.76,48.94,48.94,0,0,1-28-14,28.72,28.72,0,0,1-2.55-2.64Zm72.33,2.71a49.15,49.15,0,0,1-28.05,14,70.41,70.41,0,0,0,16.92-27.08,38.79,38.79,0,0,1,6.52,3.54,26.56,26.56,0,0,1,7.13,6.93c-.84.93-1.68,1.82-2.53,2.68Z" fill="#999"/><polyline points="167.04 200.54 125.39 200.54 125.39 165.09 70.92 165.09 70.92 114.53" fill="none" stroke="#125f82" stroke-miterlimit="10" stroke-width="2"/><polyline points="167.04 239.67 125.39 239.67 125.39 275.12 70.92 275.12 70.92 324.51" fill="none" stroke="#139c80" stroke-miterlimit="10" stroke-width="2"/><rect x="44.73" y="240.6" width="53.91" height="53.91" fill="#139c80"/><rect x="44.57" y="144.53" width="53.94" height="53.94" fill="#125f82"/><polygon points="156.01 231.78 169.4 240.42 156.18 249.71 156.01 231.78" fill="#139c80"/><polygon points="157.11 191.97 170.4 200.77 157.07 209.91 157.11 191.97" fill="#125f82"/><rect x="573.87" y="132.5" width="167.95" height="175.01" fill="#ebf0f2" stroke="#4d5155" stroke-miterlimit="10" stroke-width="0.98"/><polyline points="594.24 208.54 618.31 208.54 618.31 185.07 643.2 185.07" fill="none" stroke="#125f82" stroke-miterlimit="10" stroke-width="2"/><polyline points="594.24 232.87 618.31 232.87 618.31 256.33 643.2 256.33" fill="none" stroke="#139c80" stroke-miterlimit="10" stroke-width="2"/><rect x="658.49" y="227.73" width="55.9" height="55.9" fill="#139c80"/><rect x="658.49" y="154.54" width="55.9" height="55.9" fill="#125f82"/><polygon points="635.51 248.04 648.89 256.68 635.67 265.97 635.51 248.04" fill="#139c80"/><polygon points="635.55 176.1 648.83 184.9 635.51 194.04 635.55 176.1" fill="#125f82"/><polygon points="546.08 211.34 559.36 220.14 546.03 229.28 546.08 211.34" fill="#999"/><circle cx="71.04" cy="68.08" r="13.44" fill="none" stroke="#125f82" stroke-miterlimit="10" stroke-width="2"/><path d="M65.65,81.52H77.72a15.4,15.4,0,0,1,15.4,15.4v7.61a0,0,0,0,1,0,0H50.25a0,0,0,0,1,0,0V96.92A15.4,15.4,0,0,1,65.65,81.52Z" fill="none" stroke="#125f82" stroke-miterlimit="10" stroke-width="2"/><circle cx="71.04" cy="350.15" r="13.44" fill="none" stroke="#139c80" stroke-miterlimit="10" stroke-width="2"/><path d="M65.65,363.59H77.72A15.4,15.4,0,0,1,93.12,379v7.61a0,0,0,0,1,0,0H50.25a0,0,0,0,1,0,0V379A15.4,15.4,0,0,1,65.65,363.59Z" fill="none" stroke="#139c80" stroke-miterlimit="10" stroke-width="2"/></svg>