<svg xmlns="http://www.w3.org/2000/svg" width="781" height="440" viewBox="0 0 781 440"><title>reverse-proxy</title><path d="M57,43.34c0,.39-.54.3-1.36.22a3.2,3.2,0,0,0-3.5,3.18c0,5.29,4.94,6.59,4.94,7.44v.72" fill="none" stroke="#4d5155" stroke-miterlimit="10" stroke-width="2"/><path d="M83.81,54.9v-.72c0-.85,5-2.15,5-7.44a3.21,3.21,0,0,0-3.51-3.18c-.82.08-1.4.17-1.35-.22" fill="none" stroke="#4d5155" stroke-miterlimit="10" stroke-width="2"/><path d="M62.56,64.65a31.7,31.7,0,0,1,0,6.46c-.37,3.59-5.32,4-12.36,5.44-4.24.57-13,18.17-13,25,0,3.22,9.25,19.94,9.25,19.94" fill="none" stroke="#4d5155" stroke-miterlimit="10" stroke-width="2"/><path d="M78.64,64.65a30.33,30.33,0,0,0,0,6.46C79,74.7,84,75.07,91,76.55c8.34,3.23,12,21.41,13.62,27.26-.91,5-9.49,17.67-9.49,17.67" fill="none" stroke="#4d5155" stroke-miterlimit="10" stroke-width="2"/><path d="M70.47,74.94h.58c3.71-.08,5.79-.94,7.91-2.65,1.15,1.29,3.38,3,4.42,2.66s-5.51,4.82-12.93,4.32S60.07,76.71,59,74.59c1.43-.61,2.92-1.12,3.25-2.3C64.31,74.57,67.75,75.11,70.47,74.94Z" fill="#4d5155" stroke="#4d5155" stroke-miterlimit="10" stroke-width="0.99"/><polygon points="89.18 89.51 53.75 89.51 53.66 84.31 89.18 83.8 89.18 89.51" fill="#4d5155"/><polygon points="90.61 95.96 52.03 95.96 51.92 94.19 90.05 94.19 90.61 95.96" fill="#4d5155"/><path d="M56.68,43.07c2.43-1.07,9.33,0,13.77,2.61,2.75-2.84,11.3-3.91,14.24-2.74a1,1,0,0,0,.45.82c-1.75.69-4.72,5-7.32,5.59-1.17.29-6.76-1-7.91-.77a28.9,28.9,0,0,1-6.55.72c-3.21.1-6.67-5.3-6.67-5.3Z" fill="#4d5155" stroke="#4d5155" stroke-miterlimit="10" stroke-width="0.99"/><polyline points="97.44 117.88 101.62 117.88 93.56 131.6 48.03 131.6 39.33 117.88 43.97 117.88" fill="none" stroke="#4d5155" stroke-miterlimit="10" stroke-width="2"/><polygon points="42.51 95.86 99.09 95.86 93.56 131.6 48.03 131.6 42.51 95.86" fill="#fff" stroke="#4d5155" stroke-miterlimit="10" stroke-width="2"/><polyline points="39.33 117.88 45.77 135.06 96.12 135.06 101.62 117.88" fill="none" stroke="#4d5155" stroke-miterlimit="10" stroke-width="2"/><line x1="68.22" y1="60.65" x2="72.73" y2="60.65" fill="none" stroke="#4d5155" stroke-miterlimit="10"/><path d="M45.12,82.47c1.41,2.77,7.53,7,8.63,7s1.43-4.82,1.43-4.82c-3.67-1.87-6.34-4-7.24-6.49Z" fill="#4d5155"/><path d="M42.14,86.66c2.29,2.93,11.93,8.3,13,8A2.41,2.41,0,0,1,53.33,96c.17.18-8.53-.46-8.53-.46s-5.44-2.67-4.94-3.88C40.43,90.23,42.34,86.64,42.14,86.66Z" fill="#4d5155"/><path d="M37.74,98c.7.58,4.73,2.14,5.41,2,0,.4.54,4.77.54,4.77s-5.55.23-6.34-.92C37.47,102.42,37.74,98,37.74,98Z" fill="#4d5155"/><path d="M40.46,109.9c2.67,0,4.11-.7,4-1.13s.58,3.74.58,3.74,1.78,2.07-2.13,2.36C41.59,113.61,40.46,109.9,40.46,109.9Z" fill="#4d5155"/><path d="M96.85,82.47c-1.42,2.77-6.58,7-7.67,7s-2.89-4.37-2.89-4.37A12.76,12.76,0,0,0,94,78.2Z" fill="#4d5155"/><path d="M99.46,87.26c-2.3,2.92-9.71,7.5-10.82,7.21.25.78-.41,1.48,0,1.48-.17.18,8.52-.46,8.52-.46s4.58-2.2,4.08-3.4C100.67,90.7,99.25,87.23,99.46,87.26Z" fill="#4d5155"/><path d="M103.14,98.34c-.7.58-3.65,1.76-4.31,1.62,0,.4-.55,4.77-.55,4.77s5.55.23,6.34-.92A41.92,41.92,0,0,0,103.14,98.34Z" fill="#4d5155"/><path d="M102.26,109.63c-2.66,0-4.86-.43-4.8-.86s-.58,3.74-.58,3.74-1.26,1.7,2.65,2C100.89,113.24,102.26,109.63,102.26,109.63Z" fill="#4d5155"/><path d="M82.48,115.44l.31-.06h0l.88-.12h.16l.32,0h0l.29-.06h0a3.55,3.55,0,0,0,.7-.22,1.49,1.49,0,0,0,.76-.82,1.16,1.16,0,0,0-.47-1.54,2,2,0,0,0-.05-.54,1.39,1.39,0,0,0-1-1.15,1.49,1.49,0,0,0-.36,0,1.67,1.67,0,0,0-1.32.73,3.86,3.86,0,0,1-1.27,1l-.65.31h0l-.46.21c-.42.2-.88.4-1.33.6.24-3.81,1.94-7,.14-9.5S74,101.1,70.88,101h-.76a14.57,14.57,0,0,0-4.67.78l-.17.06a6.87,6.87,0,0,0-3,2.18c-1.48,2-.36,4.34.25,7.09l.07.32a12,12,0,0,1,.27,2.07v.5a4.33,4.33,0,0,0,.5,2.09,29.77,29.77,0,0,0-4.2-1.55c-1.7-.44-3.13-.17-3.22-1.61a.79.79,0,0,1,.6-.63,1.12,1.12,0,0,0,.44.57,1.28,1.28,0,0,1-.06-1.82,1.21,1.21,0,0,1,.39-.28c1.1-.22,1,.88,2.58,1.76.88.45,1.86,1,3,1.47h0v-.44c-1-.49-2-1-2.75-1.39a2.41,2.41,0,0,1-.48-.3l-.13-.1a7.23,7.23,0,0,1-.61-.63,1.72,1.72,0,0,0-1.3-.8h-.37a1.47,1.47,0,0,0-1,1.11,3.31,3.31,0,0,0-.07.55,1.2,1.2,0,0,0-.63,1,1.61,1.61,0,0,0,.88,1.4,5,5,0,0,0,1.52.39,11.62,11.62,0,0,1,1.21.23,34.17,34.17,0,0,1,4.71,1.76h0a9.21,9.21,0,0,0,1.55,1.57l.07,0,.27.23.16.16-.11,0-.73.26h-.1a32.94,32.94,0,0,1-4.4,1.23,23.35,23.35,0,0,1-2.36.27,6.07,6.07,0,0,0-1.89.3,1.55,1.55,0,0,0-.95,1.44,1.74,1.74,0,0,0,.41,1.24,1.38,1.38,0,0,0,.65.44,1.72,1.72,0,0,0,0,.64,1.35,1.35,0,0,0,.83,1.06,2.21,2.21,0,0,0,.77.17,1.32,1.32,0,0,0,.52-.08l.32-.14a5.15,5.15,0,0,0,.88-.74,9,9,0,0,1,2-1.59,26.63,26.63,0,0,1,3.65-1.65l.88-.34.39-.13h0l.31-.12H67s.42.4.56.5a5.22,5.22,0,0,0,3.1.81,4.68,4.68,0,0,0,3.53-1.11h0c1,.42,2.07.88,3,1.31.43.2,1.56.81,1.56.81l.5.3a9.29,9.29,0,0,1,2,1.67c.54.57,1,1,1.68,1a2.07,2.07,0,0,0,.78-.14,1.39,1.39,0,0,0,.74-.65,1.94,1.94,0,0,0,.17-.58,3.23,3.23,0,0,0,0-.44h0a1.52,1.52,0,0,0,.63-.39,1.78,1.78,0,0,0,.45-1.23,1.54,1.54,0,0,0-.88-1.47,5.6,5.6,0,0,0-1.85-.38H82.6l-.66-.08H81.7c-.33,0-.67-.12-1-.2a26.38,26.38,0,0,1-2.87-.88l-.68-.25-1.57-.61h0a.65.65,0,0,1,.15-.18,7,7,0,0,1,.64-.47c.32-.22,1.18-.92,1.18-.92A6,6,0,0,0,78,117h0l.88-.34H79c.52-.19,1-.37,1.51-.52h.07A8.61,8.61,0,0,1,82.48,115.44Zm-15.84,5.38h0l-.53.19-.46.18-.38.14h0c-1,.41-2,.82-2.93,1.26l-.14.07-.59.32c-2.52,1.45-2.64,3-4.14,2.36-.88-.34-.68-1.76-.12-2.27a1.38,1.38,0,0,0-.46.61,1.12,1.12,0,0,1-1-1.21v-.06c.13-1.66,1.76-1.09,4.59-1.56h.24a39.3,39.3,0,0,0,5.52-1.64h.07v.08c.26.41.4.94.69,1.46h0Zm4.15.93.07-.1-.09.1Zm6.34-1.7.48.17h0l.19.06h.09l.39.15c.8.28,1.6.51,2.42.71.5.11,1,.18,1.38.24l.38.06.88.09h.06c1.32.14,2,.29,2.11,1.39a1.16,1.16,0,0,1-1.06,1.23h0a1.25,1.25,0,0,0-.44-.62,1.76,1.76,0,0,1,.32,1.71h0a.87.87,0,0,1-.52.51c-1.57.55-1.59-1-4-2.52l-.58-.34c-.4-.23-1.7-.88-1.7-.88-.88-.41-1.82-.81-2.76-1.19a9.92,9.92,0,0,0,.8-1.51Zm.18-2.8,1.3-3.36v.88a3,3,0,0,1-.48,1.66,2.84,2.84,0,0,1-.88.88c-.8.49-1.7.66-2,1a1.79,1.79,0,0,0-.3.42,3,3,0,0,0-.18.41,3.17,3.17,0,0,1-.45.83,2.27,2.27,0,0,1,0,.82.55.55,0,0,1-.31.29h-.21a1,1,0,0,1-.08-.52v-.07h-.06a1.93,1.93,0,0,1,0,.48c.06.38-.49.71-.52-.21v-.12H73v.07c0,.45.13.88-.31,1s-.36-.33-.32-.93h-.26c0,.5.25,1.09-.43,1.08a.62.62,0,0,1-.27,0c-.24-.09-.22-.48-.22-.48a2.46,2.46,0,0,1,0-.52h-.27c0,.43.18.88-.26,1h-.17c-.64,0-.51-.41-.45-1.07h-.2c0,.47.07,1-.31.88s-.36-.4-.32-1h-.09c0,.39,0,.74-.26.67s-.28-.26-.27-.64v-.17h0a.74.74,0,0,1,0,.21c0,.59-.34.26-.49.17a.49.49,0,0,1-.24-.39v-.2a.88.88,0,0,0,0-.23,2.39,2.39,0,0,1-.4-.56h0c-.1-.18-.18-.38-.28-.56a2.55,2.55,0,0,0-.24-.39l-.07-.08c-.28-.32-1.08-.6-1.82-1.13a3.5,3.5,0,0,1-.88-.88,3.15,3.15,0,0,1-.53-1.89v-1a9.31,9.31,0,0,1,.53-2h0c0-.08.07-.16.11-.25l.06-.13h0c.94-2,1.1-3.53.76-4.46l-.25-.3c-.14.33-.4,1.64-.88,3.29v.16c-.11.43-.24.88-.38,1.33a.17.17,0,0,1,0,.1l-.12.47,0,.25a.45.45,0,0,0-.07-.29l-.13-.53c-.58-2.34-1.34-4.4-.08-6.11a7.93,7.93,0,0,1,1.76-1.66s1-.6,1.18-.71a10.85,10.85,0,0,1,9.31-.31.19.19,0,0,1,.18.09,8.5,8.5,0,0,1,3.41,2.7,3.38,3.38,0,0,1,.39.69l.1.23c.61,1.68,0,3.66-.34,5.91a1.71,1.71,0,0,0-.13-.53c-.46-1.76-.74-3.34-.88-4.21l-.06-.3c-.07-.29-.12-.44-.17-.37a2.19,2.19,0,0,0-.16.3,6.44,6.44,0,0,0-.2.72,7.61,7.61,0,0,0,.76,3.81,8.53,8.53,0,0,1,.62,2.38,1.41,1.41,0,0,1-.24.13Zm.75,2.06-.16,0-.59.19a4.55,4.55,0,0,0,.45-1.92v-.11h0l1.12-.49.58-.27,1-.46c1.58-.78,1.56-1.9,2.64-1.64a1.28,1.28,0,0,1,.55,1.73,1.4,1.4,0,0,1-.3.38,1.25,1.25,0,0,0,.47-.55.81.81,0,0,1,.57.65c-.08.82-.58,1.07-1.31,1.2l-.54.07a6.9,6.9,0,0,0-1,.14h0l-.38.08a21.83,21.83,0,0,0-3,1Z" fill="#4d5155"/><path d="M72.23,117.58l-.12-.61c-.2-1.07-.88-2-1.2-2s-.88.68-1.18,1.55a2.24,2.24,0,0,1-.1.39v0a10.94,10.94,0,0,0-.24,1.81c0,.4.14.36.34.15l.17-.21.08-.1h0v-.05h0l.08-.11c.27-.34.55-.68.77-.68s.37.22.58.46l.17.23c.5.65.88,1.31.7-.37C72.28,118,72.25,117.78,72.23,117.58Z" fill="#4d5155"/><path d="M70.11,111.87c-.14-.81-1-.82-3.44-1.26a1.28,1.28,0,0,0-.39,0h-.07l-.19,0-.22.08a2.94,2.94,0,0,0-1.35,2.6h0a4.57,4.57,0,0,0,0,.52h0a2.34,2.34,0,0,0,.09.38v.06a1.66,1.66,0,0,0,.34.59,1.74,1.74,0,0,0,.62.45,4.52,4.52,0,0,0,1.32.23,3.91,3.91,0,0,0,.48,0h.11a5.13,5.13,0,0,0,.65-.16A3,3,0,0,0,70.11,111.87Z" fill="#4d5155"/><path d="M77.3,112.45h0a1,1,0,0,0-.13-.36h0l-.06-.15a4,4,0,0,0-.2-.35h0a1.67,1.67,0,0,0-1.57-.82l-.77.11h0c-1.82.24-2.5.3-2.64,1a3,3,0,0,0,1.83,3.61,4.26,4.26,0,0,0,2.06.22,3.3,3.3,0,0,0,.63-.2l.09,0h0l.17-.11a1.51,1.51,0,0,0,.23-.21l0,0a1.72,1.72,0,0,0,.28-.49,3.35,3.35,0,0,0,.12-2Z" fill="#4d5155"/><ellipse cx="63.94" cy="46.32" rx="2.07" ry="1.13" fill="#fff"/><ellipse cx="77.01" cy="46.32" rx="2.07" ry="1.13" fill="#fff"/><path d="M56.52,43.73V41.26c0-8.21,6.27-14.86,14-14.86s14,6.65,14,14.86v2.08" fill="none" stroke="#4d5155" stroke-miterlimit="10" stroke-width="3.36"/><path d="M62,32.59H79.27a3.94,3.94,0,0,1,3.66,2.65l.28,7.5s2.42-2.23,1.3-4.78S79.88,26.18,71.07,26.4s-14.3,9-14.55,12.13,1.37,4.54,1.37,4.54l.37-7.45A4,4,0,0,1,62,32.59Z" fill="#4d5155"/><path d="M83.41,42.82a1.36,1.36,0,0,0-1.36,1.36V58a2.79,2.79,0,0,1-1.87,2.63l-8.59,3a2.88,2.88,0,0,1-1.88,0l-8.58-3A2.79,2.79,0,0,1,59.26,58V44.18a1.36,1.36,0,0,0-1.36-1.36h0a1.36,1.36,0,0,0-1.36,1.36V62A3.2,3.2,0,0,0,58,64.49l11.33,8.23a2.81,2.81,0,0,0,2.57,0l11.36-8.34a3.17,3.17,0,0,0,1.52-2.47V44.18a1.36,1.36,0,0,0-1.37-1.36Z" fill="#4d5155"/><path d="M66.15,56.95h8.64a2,2,0,0,1,2,2v6.63a0,0,0,0,1,0,0H64.16a0,0,0,0,1,0,0V58.93A2,2,0,0,1,66.15,56.95Z" fill="none" stroke="#4d5155" stroke-linecap="round" stroke-linejoin="round" stroke-width="2.97"/><rect x="333.83" y="223.91" width="25.49" height="25.49" fill="#139c80"/><rect x="366.52" y="223.91" width="25.49" height="25.49" fill="#139c80"/><rect x="399.2" y="223.91" width="25.49" height="25.49" fill="#139c80"/><rect x="431.89" y="223.91" width="25.49" height="25.49" fill="#ec663b"/><rect x="464.58" y="223.91" width="25.49" height="25.49" fill="#125f82"/><rect x="497.26" y="223.91" width="25.49" height="25.49" fill="#125f82"/><line x1="316.1" y1="249.85" x2="555.69" y2="249.85" fill="none" stroke="#999" stroke-miterlimit="10" stroke-width="2"/><text transform="translate(173.87 128.57)" font-size="30" fill="#4c5054" font-family="Verdana" style="isolation:isolate">Fron<tspan x="67.24" y="0" letter-spacing="-0.02em">t</tspan><tspan x="78.47" y="0">-end</tspan></text><text transform="translate(587.74 128.57)" font-size="30" fill="#4c5054" font-family="Verdana" style="isolation:isolate">Bac<tspan x="54.21" y="0" letter-spacing="-0.05em">k</tspan><tspan x="70.5" y="0">-end</tspan></text><path d="M246.48,197.92a51.93,51.93,0,1,0-.07,103.86h0a51.93,51.93,0,0,0,0-103.86Zm37.39,19.69a26.79,26.79,0,0,1-7.15,6.93,38.07,38.07,0,0,1-6.53,3.53,69,69,0,0,0-8.08-16.33A67.5,67.5,0,0,0,253.28,201a49.11,49.11,0,0,1,28,14A31.43,31.43,0,0,1,283.87,217.61Zm-34.79,81.56-1.39.05v-31.8a63.33,63.33,0,0,1,20.1,3.34,67.44,67.44,0,0,1-7.73,15.76A61.36,61.36,0,0,1,249.08,299.17Zm-24-28.43a61.36,61.36,0,0,1,20.1-3.32v31.8l-1.38-.05A66.58,66.58,0,0,1,225.06,270.74Zm18.74-70.21h1.4v31.82A64,64,0,0,1,225.09,229a67.37,67.37,0,0,1,7.73-15.75A62,62,0,0,1,243.8,200.53Zm24,28.38a63.38,63.38,0,0,1-20.11,3.33V200.47h1.4A66.83,66.83,0,0,1,267.83,228.91Zm-20.11,5.87a64.74,64.74,0,0,0,20.88-3.4,65.27,65.27,0,0,1,2.61,17.17h-23.5Zm-2.54,0v13.75H221.69a65.64,65.64,0,0,1,2.63-17.16,64.68,64.68,0,0,0,20.86,3.46Zm-26,13.75H197.07a48.93,48.93,0,0,1,10.3-28.93c1.85,2.57,6.17,7.34,14.56,10.86A67.82,67.82,0,0,0,219.14,248.53Zm0,2.54a68,68,0,0,0,2.78,18.09c-8.39,3.46-12.7,8.28-14.56,10.84a48.92,48.92,0,0,1-10.28-28.95Zm2.55,0h23.49v13.74a65,65,0,0,0-20.87,3.46,64.75,64.75,0,0,1-2.63-17.16Zm26,13.75v-13.7h23.5a66.21,66.21,0,0,1-2.63,17.18,64.23,64.23,0,0,0-20.88-3.43Zm26-13.73h22.08A48.86,48.86,0,0,1,285.54,280c-1.85-2.57-6.16-7.34-14.55-10.86a68,68,0,0,0,2.76-18Zm0-2.54A68,68,0,0,0,271,230.46c8.39-3.47,12.69-8.28,14.56-10.84a48.92,48.92,0,0,1,10.27,28.94Zm-62.22-33.69a49,49,0,0,1,28.06-14,67.58,67.58,0,0,0-8.84,10.76A69.47,69.47,0,0,0,222.68,228a37.72,37.72,0,0,1-6.52-3.54A26.71,26.71,0,0,1,209,217.5c.83-.85,1.66-1.74,2.51-2.59ZM209,282c1.33-2,5.26-6.82,13.67-10.39A69.54,69.54,0,0,0,230.78,288a68.6,68.6,0,0,0,8.83,10.77,49.06,49.06,0,0,1-28-14,28.72,28.72,0,0,1-2.55-2.64Zm72.33,2.71a49.1,49.1,0,0,1-28.05,14,70.57,70.57,0,0,0,16.92-27.09,39.52,39.52,0,0,1,6.52,3.54,26.56,26.56,0,0,1,7.13,6.93c-.84.93-1.68,1.82-2.53,2.69Z" fill="#999"/><polyline points="167.04 230.09 125.39 230.09 125.39 194.63 70.92 194.63 70.92 144.08" fill="none" stroke="#125f82" stroke-miterlimit="10" stroke-width="2"/><polyline points="167.04 269.21 125.39 269.21 125.39 304.67 70.92 304.67 70.92 354.06" fill="none" stroke="#139c80" stroke-miterlimit="10" stroke-width="2"/><rect x="44.73" y="270.15" width="53.91" height="53.91" fill="#139c80"/><rect x="44.57" y="174.08" width="53.94" height="53.94" fill="#125f82"/><polygon points="156.01 261.33 169.4 269.96 156.18 279.26 156.01 261.33" fill="#139c80"/><polygon points="157.11 221.51 170.4 230.31 157.07 239.46 157.11 221.51" fill="#125f82"/><rect x="573.87" y="162.04" width="167.95" height="175.01" fill="#ebf0f2" stroke="#4d5155" stroke-miterlimit="10" stroke-width="0.98"/><polyline points="594.24 238.08 618.31 238.08 618.31 214.62 643.2 214.62" fill="none" stroke="#125f82" stroke-miterlimit="10" stroke-width="2"/><polyline points="594.24 262.41 618.31 262.41 618.31 285.88 643.2 285.88" fill="none" stroke="#139c80" stroke-miterlimit="10" stroke-width="2"/><rect x="658.49" y="257.27" width="55.9" height="55.9" fill="#139c80"/><rect x="658.49" y="184.08" width="55.9" height="39.5" fill="#125f82"/><polygon points="635.51 277.59 648.89 286.22 635.67 295.52 635.51 277.59" fill="#139c80"/><polygon points="635.55 205.64 648.83 214.44 635.51 223.59 635.55 205.64" fill="#125f82"/><polygon points="546.08 240.88 559.36 249.68 546.03 258.83 546.08 240.88" fill="#999"/><circle cx="70.04" cy="378.5" r="13.44" fill="none" stroke="#139c80" stroke-miterlimit="10" stroke-width="2"/><path d="M64.65,391.95H76.72a15.4,15.4,0,0,1,15.4,15.4V415a0,0,0,0,1,0,0H49.25a0,0,0,0,1,0,0v-7.61A15.4,15.4,0,0,1,64.65,391.95Z" fill="none" stroke="#139c80" stroke-miterlimit="10" stroke-width="2"/><rect x="44.57" y="209.73" width="53.94" height="18.28" fill="#ec663b"/><rect x="658.71" y="256.96" width="55.9" height="16.06" fill="#ec663b"/></svg>